<svg width="451" height="296" viewBox="0 0 451 296" fill="none" xmlns="http://www.w3.org/2000/svg">
<path fill-rule="evenodd" clip-rule="evenodd" d="M80.3663 110.069L111.935 37.0974C117.715 23.7379 120.605 17.0581 125.757 12.1285C130.307 7.77443 136.091 4.41331 142.596 2.34346C149.961 0 158.567 0 175.779 0H237.228L125.293 258.742C119.513 272.101 116.623 278.781 111.471 283.71C106.921 288.064 101.137 291.426 94.6316 293.495C87.2665 295.839 78.6603 295.839 61.4483 295.839H0L47.6176 185.769H34.8709L63.54 119.562C65.0205 116.144 65.7607 114.434 67.08 113.173C68.2455 112.059 69.727 111.199 71.3934 110.669C73.2796 110.069 75.4838 110.069 79.8924 110.069H80.3663ZM113.926 37.6814C119.765 24.1851 122.525 17.888 127.359 13.2636C131.682 9.12667 137.178 5.93327 143.358 3.96671C150.267 1.7685 158.391 1.74023 175.779 1.74023H234.231L123.301 258.158C117.463 271.654 114.702 277.951 109.869 282.575C105.546 286.712 100.05 289.906 93.8698 291.872C86.9611 294.07 78.8362 294.099 61.4483 294.099H2.99632L49.8611 185.769H50.6094C55.0178 185.769 57.2221 185.769 59.1083 185.17C60.7747 184.64 62.2562 183.78 63.4217 182.666C64.741 181.404 65.4812 179.695 66.9616 176.277L95.6308 110.069H82.6102L113.926 37.6814Z" fill="#FF5144"/>
<path d="M86.8396 195.121C87.5849 216.209 104.646 237.176 138.055 253.27C168.559 267.967 207.558 276.132 247.542 277.761C250.924 277.898 254.314 277.989 257.708 278.033C258.506 278.046 259.304 278.053 260.106 278.059C306.043 278.365 352.244 270.1 387.415 253.26C456.506 220.185 456.886 166.574 388.245 133.499C328.723 104.82 236.856 101.011 168.446 122.073C157.972 125.297 148.044 129.102 138.869 133.499C134.847 135.423 131.059 137.415 127.503 139.473C126.385 140.118 125.291 140.77 124.222 141.431C119.276 144.464 114.817 147.628 110.852 150.892C105.359 155.406 100.81 160.108 97.2008 164.941C96.7027 165.606 96.2247 166.271 95.7672 166.94C91.8829 172.578 89.2577 178.372 87.905 184.223C87.5284 185.848 87.249 187.48 87.0667 189.116C86.8438 191.117 86.7667 193.119 86.8396 195.121Z" fill="url(#paint0_linear_41_62)"/>
<path d="M119.071 196.513L106.385 215.029L196.404 233.531H247.749L201.346 211.318V192.718L197.575 190.914L193.613 192.805L174.422 183.62V179.831L139.429 163.076L135.464 164.97L124.009 159.486L124.017 141.43C119.071 144.463 114.612 147.627 110.646 150.891C105.153 155.405 100.604 160.107 96.9958 164.94C96.4977 165.605 96.0197 166.27 95.5617 166.938L138.214 187.361L119.071 196.513Z" fill="url(#paint1_linear_41_62)"/>
<path opacity="0.55" d="M173.027 242.19C168.426 239.987 168.426 234.482 173.027 232.279L178.217 229.795L178.219 229.795L196.12 221.226L209.082 215.023H209.08L209.082 215.022L201.421 211.355L201.346 211.319L201.346 192.72L201.345 192.719L200.369 192.252L197.575 190.915L197.247 191.072L193.612 192.806L176.758 184.74L174.422 183.621V179.831L160.194 173.02L139.428 163.077L135.463 164.971L135.429 164.955L131.558 163.1L87.6982 184.222C87.3216 185.847 87.0422 187.48 86.8599 189.115C86.637 191.117 86.5599 193.119 86.6328 195.12C87.3786 216.209 104.439 237.176 137.848 253.27C168.353 267.967 207.352 276.132 247.335 277.76L173.027 242.19Z" fill="#FF5144"/>
<path d="M350.339 224.343L394.085 203.401L428.15 209.32L418.641 213.872H426.275V215.673H414.878L399.403 223.082H406.929V224.882H395.641L384.404 230.262L350.339 224.343Z" fill="url(#paint2_linear_41_62)"/>
<path d="M405.608 223.345C404.874 223.697 404.87 224.266 405.6 224.619C406.33 224.97 407.517 224.97 408.252 224.619C408.987 224.266 408.99 223.697 408.26 223.345C407.53 222.993 406.344 222.993 405.608 223.345Z" fill="#F6F6F6"/>
<path d="M405.056 223.982H408.806V214.581H405.056V223.982Z" fill="#F6F6F6"/>
<path d="M424.954 214.137C424.22 214.488 424.215 215.058 424.946 215.41C425.676 215.762 426.862 215.762 427.597 215.41C428.332 215.058 428.336 214.488 427.606 214.137C426.875 213.785 425.689 213.785 424.954 214.137Z" fill="#F6F6F6"/>
<path d="M424.402 214.774H428.152V205.373H424.402V214.774Z" fill="#F6F6F6"/>
<path d="M385.98 184.528L403.479 218.034L447.225 197.093L429.726 163.586L385.98 184.528Z" fill="#ADEBDE"/>
<path d="M389.292 183.721L433.038 162.779L429.726 163.587L385.98 184.528L389.292 183.721Z" fill="white"/>
<path d="M389.289 183.72L389.755 184.61L406.788 217.225L449.574 196.745L450.534 196.285L433.035 162.777L432.075 163.237L389.289 183.72Z" fill="url(#paint3_linear_41_62)"/>
<path d="M394.249 181.347L389.292 183.72L406.79 217.227L446.025 198.444L394.249 181.347Z" fill="#141B66"/>
<path d="M385.98 184.527L403.479 218.034L406.791 217.226L389.292 183.719L385.98 184.527Z" fill="#B7EFF9"/>
<path d="M389.289 183.718L389.291 183.72L389.289 183.721L389.755 184.611L397.807 200.028L397.806 200.029L398.271 200.919L398.272 200.918L406.323 216.335L406.322 216.336L406.788 217.226L417.484 212.105L417.484 212.106L418.444 211.645H418.444L428.18 206.984L428.181 206.986L429.141 206.526L429.14 206.524L438.876 201.863L438.877 201.865L439.837 201.406L439.837 201.404L446.021 198.443L444.645 197.989L439.371 200.513L436.679 195.358L435.229 194.879L438.411 200.973L428.675 205.634L420.624 190.217L420.822 190.122L419.072 189.544L419.199 189.786L409.463 194.448L404.367 184.688L402.916 184.21L408.503 194.907L398.767 199.568L390.716 184.151L395.624 181.801L394.248 181.347L390.251 183.261L390.249 183.258L389.289 183.718ZM409.928 195.338L419.664 190.677L427.715 206.094L417.979 210.755L409.928 195.338ZM399.232 200.459L408.968 195.798L417.019 211.215L407.283 215.876L399.232 200.459Z" fill="#4EAAE1"/>
<path d="M450.535 196.285L450.533 196.282L450.535 196.281L450.069 195.391L450.069 195.392L442.017 179.974L442.018 179.974L441.553 179.084L441.552 179.084L433.502 163.667L433.502 163.667L433.036 162.777L422.34 167.897L422.34 167.897L421.38 168.357V168.357L411.644 173.019L411.644 173.017L410.684 173.477L410.684 173.478L400.948 178.139L400.947 178.137L399.987 178.597L399.988 178.599L394.25 181.346L395.625 181.801L400.453 179.489L402.917 184.209L404.368 184.688L401.413 179.029L411.149 174.369L419.074 189.543L420.823 190.121L430.361 185.555L435.23 194.879L436.68 195.357L431.321 185.095L441.057 180.434L449.108 195.851L444.646 197.988L446.022 198.442L449.573 196.742L449.575 196.745L450.535 196.285ZM429.896 184.665L420.16 189.326L412.109 173.909L421.845 169.248L429.896 184.665ZM440.592 179.544L430.856 184.205L422.805 168.788L432.541 164.127L440.592 179.544Z" fill="#5FD1F9"/>
<path d="M293.455 251.575L337.201 230.633L371.266 236.552L361.757 241.104H369.391V242.905H357.995L342.52 250.313H350.045V252.114H338.757L327.52 257.494L293.455 251.575Z" fill="url(#paint4_linear_41_62)"/>
<path d="M348.724 250.576C347.989 250.928 347.986 251.498 348.716 251.85C349.446 252.202 350.632 252.202 351.367 251.85C352.102 251.498 352.106 250.928 351.376 250.576C350.646 250.225 349.459 250.225 348.724 250.576Z" fill="#F6F6F6"/>
<path d="M348.171 251.214H351.922V241.813H348.171V251.214Z" fill="#F6F6F6"/>
<path d="M368.069 241.368C367.334 241.72 367.331 242.289 368.061 242.642C368.791 242.993 369.978 242.993 370.712 242.642C371.447 242.29 371.451 241.72 370.721 241.368C369.991 241.016 368.804 241.016 368.069 241.368Z" fill="#F6F6F6"/>
<path d="M367.517 242.005H371.267V232.604H367.517V242.005Z" fill="#F6F6F6"/>
<path d="M329.096 211.759L346.594 245.266L390.34 224.324L372.842 190.817L329.096 211.759Z" fill="#ADEBDE"/>
<path d="M332.407 210.952L376.153 190.01L372.842 190.818L329.096 211.76L332.407 210.952Z" fill="white"/>
<path d="M332.405 210.953L332.87 211.842L349.903 244.457L392.689 223.977L393.649 223.517L376.151 190.009L375.191 190.469L332.405 210.953Z" fill="url(#paint5_linear_41_62)"/>
<path d="M337.364 208.579L332.406 210.952L349.905 244.458L389.141 225.676L337.364 208.579Z" fill="#141B66"/>
<path d="M329.096 211.759L346.594 245.265L349.906 244.457L332.407 210.95L329.096 211.759Z" fill="#B7EFF9"/>
<path d="M332.405 210.949L332.406 210.952L332.405 210.953L332.87 211.843L332.871 211.843L340.922 227.26L340.921 227.26L341.387 228.15V228.15L349.439 243.567L349.437 243.567L349.903 244.458L360.599 239.337L360.6 239.337L361.56 238.877V238.877L371.295 234.216L371.296 234.217L372.256 233.757L372.256 233.756L381.991 229.095L381.992 229.097L382.953 228.637L382.952 228.635L389.136 225.675L387.76 225.22L382.487 227.745L379.795 222.59L378.344 222.111L381.527 228.205L371.791 232.866L363.74 217.448L363.938 217.354L362.188 216.776L362.314 217.018L352.579 221.679L347.483 211.92L346.032 211.441L351.618 222.139L341.883 226.8L333.831 211.383L338.74 209.033L337.364 208.579L333.366 210.493L333.365 210.489L332.405 210.949ZM353.043 222.569L362.78 217.908L370.831 233.325L361.095 237.986L353.043 222.569ZM342.347 227.69L352.083 223.029L360.135 238.446L350.398 243.107L342.347 227.69Z" fill="#4EAAE1"/>
<path d="M393.65 223.517L393.649 223.514L393.65 223.513L393.184 222.624H393.184L385.133 207.206L385.134 207.206L384.668 206.316L376.617 190.899L376.618 190.899L376.152 190.009L365.456 195.13L365.455 195.129L364.496 195.589L354.76 200.251L354.759 200.249L353.799 200.709L353.8 200.71L344.064 205.371L344.062 205.369L343.102 205.829L343.104 205.831L337.365 208.578L338.741 209.033L343.568 206.722L346.033 211.441L347.483 211.92L344.529 206.262L354.264 201.601L362.189 216.776L363.939 217.354L373.477 212.787L378.345 222.111L379.796 222.59L374.437 212.328L384.173 207.666L392.223 223.083L387.761 225.22L389.137 225.674L392.689 223.974L392.69 223.977L393.65 223.517ZM373.012 211.897L363.275 216.558L355.225 201.141L364.96 196.48L373.012 211.897ZM383.708 206.776L373.971 211.437L365.921 196.02L375.656 191.359L383.708 206.776Z" fill="#5FD1F9"/>
<path d="M236.569 278.806L280.315 257.865L314.38 263.784L304.871 268.336H312.505V270.137H301.109L285.634 277.545H293.16V279.346H281.871L270.634 284.725L236.569 278.806Z" fill="#8C1A1A" fill-opacity="0.5"/>
<path d="M291.84 277.808C291.105 278.159 291.101 278.729 291.831 279.081C292.561 279.433 293.748 279.433 294.482 279.081C295.218 278.729 295.221 278.159 294.492 277.808C293.761 277.455 292.575 277.455 291.84 277.808Z" fill="#F6F6F6"/>
<path d="M291.286 278.446H295.037V269.044H291.286V278.446Z" fill="#F6F6F6"/>
<path d="M311.185 268.6C310.45 268.952 310.447 269.522 311.177 269.873C311.906 270.225 313.093 270.225 313.828 269.873C314.563 269.522 314.566 268.952 313.837 268.6C313.107 268.248 311.92 268.248 311.185 268.6Z" fill="#F6F6F6"/>
<path d="M310.632 269.237H314.382V259.836H310.632V269.237Z" fill="#F6F6F6"/>
<path d="M272.211 238.991L289.709 272.497L333.455 251.556L315.957 218.049L272.211 238.991Z" fill="#ADEBDE"/>
<path d="M275.522 238.183L319.269 217.242L315.957 218.05L272.211 238.992L275.522 238.183Z" fill="white"/>
<path d="M275.52 238.184L275.986 239.074L293.019 271.689L335.804 251.208L336.765 250.748L319.266 217.24L318.306 217.7L275.52 238.184Z" fill="url(#paint6_linear_41_62)"/>
<path d="M280.479 235.811L275.522 238.184L293.021 271.691L332.257 252.908L280.479 235.811Z" fill="#141B66"/>
<path d="M272.211 238.99L289.709 272.497L293.021 271.689L275.522 238.182L272.211 238.99Z" fill="#B7EFF9"/>
<path d="M275.52 238.181L275.521 238.184L275.52 238.184L275.986 239.075L284.038 254.491L284.036 254.492L284.502 255.382L292.553 270.799L293.019 271.689L303.715 266.568V266.569L304.675 266.109L314.411 261.448L314.411 261.449L315.371 260.989L315.371 260.988L325.107 256.327L325.108 256.329L326.068 255.869L326.067 255.867L332.251 252.906L330.875 252.452L325.602 254.977L322.91 249.822L321.459 249.343L324.642 255.436L314.906 260.097L306.855 244.681L307.053 244.585L305.303 244.008L305.43 244.25L295.694 248.911L290.597 239.152L289.147 238.673L294.734 249.371L284.998 254.032L276.947 238.615L281.855 236.265L280.479 235.811L276.482 237.724L276.48 237.721L275.52 238.181ZM296.159 249.801L305.895 245.14L313.946 260.557L304.21 265.219L296.159 249.801ZM285.463 254.922L295.198 250.261L303.249 265.678L293.514 270.339L285.463 254.922Z" fill="#4EAAE1"/>
<path d="M336.766 250.748L336.764 250.745L336.766 250.745L336.3 249.855L336.3 249.855L328.249 234.438L328.25 234.438L327.784 233.548L319.733 218.13H319.733L319.268 217.24L308.572 222.361L308.571 222.36L307.611 222.82L307.612 222.821L297.875 227.482L297.875 227.48L296.914 227.941L296.916 227.942L287.179 232.603L287.178 232.6L286.218 233.061L286.219 233.062L280.481 235.81L281.857 236.264L286.684 233.953L289.148 238.672L290.599 239.151L287.645 233.493L297.38 228.832L305.305 244.007L307.055 244.585L316.592 240.019L321.461 249.342L322.911 249.821L317.552 239.559L327.289 234.898L335.339 250.315L330.877 252.451L332.253 252.906L335.804 251.205L335.806 251.208L336.766 250.748ZM316.127 239.128L306.391 243.789L298.341 228.372L308.076 223.711L316.127 239.128ZM326.823 234.007L317.087 238.668L309.037 223.252L318.772 218.59L326.823 234.007Z" fill="#5FD1F9"/>
<path d="M124.008 115.058L201.357 78.0408L209.081 81.7383L139.476 115.059L181.464 135.159L175.941 139.919L124.008 115.058Z" fill="url(#paint7_linear_41_62)"/>
<path d="M139.427 137.137V163.078L174.422 179.831V161.403L170.411 159.487V151.97L139.427 137.137Z" fill="#FF5144"/>
<path d="M209.082 81.7383L139.477 115.059L143.34 116.909L209.082 85.438V81.7383Z" fill="url(#paint8_linear_41_62)"/>
<path d="M209.08 85.4387L143.339 116.91L181.463 135.16L209.08 111.358L236.156 98.4003L209.08 85.4387Z" fill="url(#paint9_linear_41_62)"/>
<path d="M139.426 163.078L135.463 164.971V135.24L139.426 137.138V163.078Z" fill="#EDEDED"/>
<path d="M175.941 139.921L170.421 144.678L170.411 151.971L135.464 135.241V164.972L124.008 159.487V115.06L175.941 139.921Z" fill="url(#paint10_linear_41_62)"/>
<path d="M193.614 192.807L174.424 183.62V161.402L193.614 170.591V192.807Z" fill="url(#paint11_linear_41_62)"/>
<path d="M197.575 190.915L193.612 192.807V170.592L197.575 172.491V190.915Z" fill="#EDEDED"/>
<path d="M197.576 190.914L201.346 192.719L201.347 174.299L197.576 172.49V190.914Z" fill="#FF5144"/>
<path d="M205.31 157.594L201.347 159.487V137.271L205.31 139.17V157.594Z" fill="#EDEDED"/>
<path d="M205.309 157.594L216.813 163.101V144.677L205.309 139.17V157.594Z" fill="#FF5144"/>
<path d="M205.31 157.594L201.347 159.487L216.814 166.892L216.814 163.102L205.31 157.594Z" fill="white"/>
<path d="M246.253 126.211L278.687 141.737V226.129L270.965 222.432V170.6L246.253 126.211Z" fill="#FF5144"/>
<path d="M284.922 107.723L246.253 126.209L278.687 141.735L317.355 123.249L284.922 107.723Z" fill="#FF5144"/>
<path d="M332.821 192.806L317.353 200.211V148.379L332.821 140.974V192.806Z" fill="url(#paint12_linear_41_62)"/>
<path d="M270.963 170.587V222.419L247.748 233.531V181.699L270.963 170.587Z" fill="url(#paint13_linear_41_62)"/>
<path d="M307.266 161.189L284.814 171.921V149.147L307.266 138.416V161.189Z" fill="#FF5144"/>
<path d="M307.266 161.19L284.814 171.922V175.716L311.229 163.087L307.266 161.19Z" fill="white"/>
<path d="M307.266 161.189V138.416L311.229 136.519V163.087L307.266 161.189Z" fill="#C6C6C6"/>
<path d="M303.299 158.544L284.805 167.381L284.814 149.147L303.307 140.311L303.299 158.544Z" fill="#516193"/>
<path d="M209.081 111.357L247.75 181.701L270.964 170.599L246.253 126.21L284.921 107.724L317.355 123.25V148.38L332.823 140.976L294.153 70.6318L209.081 111.357Z" fill="url(#paint14_linear_41_62)"/>
<path d="M278.685 141.735V226.127L284.812 223.173V186.143L311.227 173.514V210.545L317.354 207.616V123.249L278.685 141.735ZM284.812 175.732V149.147L311.227 136.519V163.087L284.812 175.732Z" fill="url(#paint15_linear_41_62)"/>
<path d="M307.266 208.649L284.814 219.385V186.161L307.266 175.424V208.649Z" fill="#FF5144"/>
<path d="M307.266 208.648V175.412L311.229 173.515V210.545L307.266 208.648Z" fill="#C6C6C6"/>
<path d="M224.505 78.801L185.836 97.2874L212.139 109.879L250.797 91.3871L224.505 78.801Z" fill="#FF5144"/>
<path d="M185.836 97.2876L212.139 109.879L209.081 111.357L185.836 131.39V97.2876Z" fill="#8C1A1A"/>
<path d="M170.411 159.487L201.346 174.3V211.319L247.75 233.533V181.701L209.08 111.357L170.421 144.678L170.411 159.487ZM209.082 177.998L224.548 185.404V210.655L209.082 203.251L209.082 177.998ZM201.346 137.274L216.814 144.678V166.892L201.346 159.487V137.274Z" fill="url(#paint16_linear_41_62)"/>
<path d="M213.046 201.357L209.083 203.25V177.997L213.046 179.896V201.357Z" fill="#EDEDED"/>
<path d="M213.044 201.357L224.549 206.864V185.403L213.044 179.896V201.357Z" fill="#FF5144"/>
<path d="M213.046 201.357L209.083 203.25L224.55 210.655V206.865L213.046 201.357Z" fill="white"/>
<path d="M175.816 195.384C177.113 194.763 179.213 194.763 180.501 195.384C181.792 196.006 181.786 197.015 180.489 197.635C179.189 198.257 177.089 198.257 175.798 197.635C174.51 197.015 174.516 196.006 175.816 195.384Z" fill="#F6F6F6"/>
<path d="M174.837 196.51H178.151H181.465V164.782L178.151 163.197L174.837 161.61V196.51Z" fill="#F6F6F6"/>
<path d="M224.546 190.065L224.548 185.403L217.002 181.791L216.999 186.452L224.546 190.065Z" fill="#516193"/>
<path d="M216.999 188.622L217.003 198.68L224.55 202.293L224.546 192.235L216.999 188.622Z" fill="#516193"/>
<path d="M209.269 141.065V154.917L216.816 158.529L216.815 144.678L209.269 141.065Z" fill="#516193"/>
<path d="M284.814 190.807L284.815 186.16L303.321 177.313L303.32 181.985L284.814 190.807Z" fill="#516193"/>
<path d="M303.318 184.156L303.308 206.047L284.801 214.895L284.812 192.978L303.318 184.156Z" fill="#516193"/>
<path d="M284.801 214.895L303.308 206.047L303.321 203.307L284.815 194.448L284.801 214.895Z" fill="url(#paint17_linear_41_62)"/>
<defs>
<linearGradient id="paint0_linear_41_62" x1="439.481" y1="193.382" x2="86.8132" y2="193.382" gradientUnits="userSpaceOnUse">
<stop stop-color="#FF0000"/>
<stop offset="0.147" stop-color="#FE0404"/>
<stop offset="0.2995" stop-color="#D22222"/>
<stop offset="0.4544" stop-color="#9D1C1C"/>
<stop offset="0.6111" stop-color="#8C1E1E"/>
<stop offset="0.7692" stop-color="#840E0E"/>
<stop offset="0.9262" stop-color="#E8BFBF"/>
<stop offset="1" stop-color="#AF5151"/>
</linearGradient>
<linearGradient id="paint1_linear_41_62" x1="229.72" y1="177.741" x2="107.136" y2="217.355" gradientUnits="userSpaceOnUse">
<stop stop-color="#A90202"/>
<stop offset="0.2046" stop-color="#A8030D"/>
<stop offset="0.4167" stop-color="#AF0F0F"/>
<stop offset="0.6322" stop-color="#BA2323"/>
<stop offset="0.8486" stop-color="#CB3F3F"/>
<stop offset="1" stop-color="#D9575F"/>
</linearGradient>
<linearGradient id="paint2_linear_41_62" x1="428.15" y1="216.832" x2="365.123" y2="216.832" gradientUnits="userSpaceOnUse">
<stop stop-color="#940000"/>
<stop offset="0.207" stop-color="#960315"/>
<stop offset="0.4215" stop-color="#9E0F31"/>
<stop offset="0.6395" stop-color="#AB2243"/>
<stop offset="0.8584" stop-color="#BD3C3C"/>
<stop offset="1" stop-color="#CC5252"/>
</linearGradient>
<linearGradient id="paint3_linear_41_62" x1="430.849" y1="205.709" x2="414.537" y2="171.632" gradientUnits="userSpaceOnUse">
<stop stop-color="#113273"/>
<stop offset="1" stop-color="#0050BF"/>
</linearGradient>
<linearGradient id="paint4_linear_41_62" x1="371.266" y1="244.063" x2="308.239" y2="244.063" gradientUnits="userSpaceOnUse">
<stop stop-color="#8C1A1A"/>
<stop offset="0.207" stop-color="#960303"/>
<stop offset="0.4215" stop-color="#9E0F0F"/>
<stop offset="0.6395" stop-color="#AB2222"/>
<stop offset="0.8584" stop-color="#BD3C44"/>
<stop offset="1" stop-color="#CC5252"/>
</linearGradient>
<linearGradient id="paint5_linear_41_62" x1="373.964" y1="232.941" x2="357.652" y2="198.865" gradientUnits="userSpaceOnUse">
<stop stop-color="#113273"/>
<stop offset="1" stop-color="#0050BF"/>
</linearGradient>
<linearGradient id="paint6_linear_41_62" x1="317.08" y1="260.172" x2="300.767" y2="226.096" gradientUnits="userSpaceOnUse">
<stop stop-color="#113273"/>
<stop offset="1" stop-color="#0050BF"/>
</linearGradient>
<linearGradient id="paint7_linear_41_62" x1="166.545" y1="78.0408" x2="166.545" y2="139.919" gradientUnits="userSpaceOnUse">
<stop stop-color="#EDEDED"/>
<stop offset="0.3188" stop-color="#F1F1F1"/>
<stop offset="1" stop-color="#F6F6F6"/>
</linearGradient>
<linearGradient id="paint8_linear_41_62" x1="209.082" y1="99.3236" x2="139.477" y2="99.3236" gradientUnits="userSpaceOnUse">
<stop stop-color="#B2B2B2"/>
<stop offset="0.017" stop-color="#B3B3B3"/>
<stop offset="0.3593" stop-color="#C8C8C8"/>
<stop offset="0.6916" stop-color="#D5D5D5"/>
<stop offset="1" stop-color="#DADADA"/>
</linearGradient>
<linearGradient id="paint9_linear_41_62" x1="189.747" y1="135.16" x2="189.747" y2="85.4387" gradientUnits="userSpaceOnUse">
<stop stop-color="#8C1A1A"/>
<stop offset="1" stop-color="#E61717"/>
</linearGradient>
<linearGradient id="paint10_linear_41_62" x1="190.665" y1="190.777" x2="132.045" y2="104.709" gradientUnits="userSpaceOnUse">
<stop stop-color="#A6A6A6"/>
<stop offset="0.1449" stop-color="#B3B3B3"/>
<stop offset="0.4426" stop-color="#C8C8C8"/>
<stop offset="0.7317" stop-color="#D5D5D5"/>
<stop offset="1" stop-color="#DADADA"/>
</linearGradient>
<linearGradient id="paint11_linear_41_62" x1="194.783" y1="187.971" x2="136.164" y2="101.904" gradientUnits="userSpaceOnUse">
<stop stop-color="#A6A6A6"/>
<stop offset="0.1449" stop-color="#B3B3B3"/>
<stop offset="0.4426" stop-color="#C8C8C8"/>
<stop offset="0.7317" stop-color="#D5D5D5"/>
<stop offset="1" stop-color="#DADADA"/>
</linearGradient>
<linearGradient id="paint12_linear_41_62" x1="280.326" y1="241.094" x2="317.518" y2="155.886" gradientUnits="userSpaceOnUse">
<stop stop-color="#DADADA"/>
<stop offset="0.338" stop-color="#EEEEEE"/>
<stop offset="0.6749" stop-color="#FAFAFA"/>
<stop offset="1" stop-color="white"/>
</linearGradient>
<linearGradient id="paint13_linear_41_62" x1="244.501" y1="225.456" x2="281.692" y2="140.249" gradientUnits="userSpaceOnUse">
<stop stop-color="#DADADA"/>
<stop offset="0.338" stop-color="#EEEEEE"/>
<stop offset="0.6749" stop-color="#FAFAFA"/>
<stop offset="1" stop-color="white"/>
</linearGradient>
<linearGradient id="paint14_linear_41_62" x1="270.952" y1="181.701" x2="270.952" y2="70.6318" gradientUnits="userSpaceOnUse">
<stop stop-color="#FF5144"/>
<stop offset="1" stop-color="#EB1717"/>
</linearGradient>
<linearGradient id="paint15_linear_41_62" x1="308.02" y1="221.713" x2="294.971" y2="132.458" gradientUnits="userSpaceOnUse">
<stop stop-color="#DADADA"/>
<stop offset="1" stop-color="white"/>
</linearGradient>
<linearGradient id="paint16_linear_41_62" x1="209.08" y1="233.533" x2="209.08" y2="111.357" gradientUnits="userSpaceOnUse">
<stop stop-color="#A6A6A6"/>
<stop offset="0.1449" stop-color="#B3B3B3"/>
<stop offset="0.4426" stop-color="#C8C8C8"/>
<stop offset="0.7317" stop-color="#D5D5D5"/>
<stop offset="1" stop-color="#DADADA"/>
</linearGradient>
<linearGradient id="paint17_linear_41_62" x1="284.097" y1="214.558" x2="292.063" y2="197.917" gradientUnits="userSpaceOnUse">
<stop stop-color="#2E5999"/>
<stop offset="0.0106" stop-color="#2E5999"/>
<stop offset="0.3471" stop-color="#3F6BAE"/>
<stop offset="0.6793" stop-color="#4976BA"/>
<stop offset="1" stop-color="#4D7ABF"/>
</linearGradient>
</defs>
</svg>
