<svg width="26" height="26" viewBox="0 0 26 26" fill="none" xmlns="http://www.w3.org/2000/svg">
<g clip-path="url(#clip0_44_19)">
<path d="M12.7409 9.99131C12.1521 9.99153 11.5766 10.1682 11.0871 10.4989C10.5976 10.8296 10.2162 11.2996 9.99102 11.8493C9.76585 12.3991 9.70705 13.0041 9.82205 13.5876C9.93706 14.1711 10.2207 14.7071 10.6371 15.1278C11.0536 15.5484 11.5841 15.8349 12.1615 15.9508C12.7391 16.0669 13.3377 16.0072 13.8817 15.7795C14.4256 15.5517 14.8905 15.1661 15.2176 14.6713C15.5447 14.1766 15.7193 13.595 15.7193 13C15.7187 12.202 15.4047 11.4369 14.8463 10.8728C14.2878 10.3086 13.5306 9.9916 12.7409 9.99131ZM19.7019 7.6787C19.5503 7.29054 19.3215 6.938 19.0294 6.64294C18.7374 6.34788 18.3885 6.11659 18.0045 5.96342C16.8323 5.49582 14.0415 5.60075 12.7409 5.60075C11.4404 5.60075 8.65226 5.49188 7.47676 5.96342C7.09264 6.11659 6.74377 6.34788 6.45178 6.64294C6.15979 6.938 5.93092 7.29054 5.77935 7.6787C5.31717 8.8632 5.42044 11.6863 5.42044 12.9994C5.42044 14.3125 5.31717 17.1322 5.78158 18.3206C5.93315 18.7087 6.16202 19.0613 6.45401 19.3564C6.746 19.6515 7.09488 19.8827 7.47898 20.0359C8.65115 20.5034 11.442 20.3986 12.7431 20.3986C14.0442 20.3986 16.8311 20.5075 18.0067 20.0359C18.3908 19.8827 18.7397 19.6515 19.0317 19.3564C19.3237 19.0613 19.5525 18.7087 19.7041 18.3206C20.1701 17.1361 20.0631 14.3131 20.0631 13C20.0631 11.6868 20.1701 8.86772 19.7041 7.67927L19.7019 7.6787ZM12.7409 17.6251C11.8356 17.6251 10.9507 17.3539 10.198 16.8457C9.44535 16.3374 8.85869 15.6151 8.51227 14.77C8.16584 13.9247 8.07521 12.9948 8.25181 12.0976C8.42842 11.2004 8.86434 10.3763 9.50445 9.72943C10.1446 9.08258 10.9601 8.64207 11.848 8.4636C12.7358 8.28515 13.6561 8.37674 14.4924 8.72681C15.3288 9.07689 16.0436 9.66971 16.5466 10.4303C17.0494 11.1909 17.3179 12.0851 17.3179 13C17.3186 13.6075 17.2008 14.2093 16.971 14.7708C16.7412 15.3323 16.4042 15.8425 15.9789 16.2722C15.5538 16.7018 15.049 17.0424 14.4933 17.2746C13.9377 17.5068 13.3422 17.6259 12.7409 17.6251ZM17.5066 9.26029C17.2952 9.26041 17.0887 9.19718 16.9129 9.07862C16.7371 8.96006 16.6001 8.7915 16.5191 8.59423C16.4382 8.39697 16.417 8.17989 16.4582 7.97043C16.4993 7.76098 16.601 7.56856 16.7504 7.41752C16.8998 7.26648 17.0902 7.16361 17.2974 7.1219C17.5047 7.08019 17.7195 7.10155 17.9148 7.18324C18.11 7.26493 18.2769 7.40331 18.3943 7.58086C18.5117 7.7584 18.5743 7.96716 18.5743 8.1807C18.5749 8.32251 18.5479 8.46305 18.4946 8.59424C18.4413 8.72542 18.3629 8.84471 18.2639 8.94521C18.1649 9.04572 18.0472 9.12549 17.9177 9.17995C17.7881 9.23441 17.6492 9.26248 17.5088 9.26255L17.5066 9.26029ZM22.5647 0.365234H2.91703C2.20645 0.365234 1.52498 0.650482 1.02252 1.15822C0.520069 1.66596 0.237793 2.35461 0.237793 3.07267V22.9272C0.237793 23.6453 0.520069 24.3339 1.02252 24.8417C1.52498 25.3494 2.20645 25.6347 2.91703 25.6347H22.5647C23.2754 25.6347 23.9568 25.3494 24.4593 24.8417C24.9617 24.3339 25.244 23.6453 25.244 22.9272V3.07267C25.244 2.35461 24.9617 1.66596 24.4593 1.15822C23.9568 0.650482 23.2754 0.365234 22.5647 0.365234ZM21.6091 16.7227C21.5371 18.1683 21.2106 19.4493 20.1662 20.5018C19.122 21.5543 17.8554 21.891 16.4265 21.9599C14.9524 22.0439 10.5328 22.0439 9.05862 21.9599C7.62802 21.8871 6.36487 21.5566 5.31885 20.5018C4.27284 19.447 3.94407 18.1656 3.87597 16.7227C3.79281 15.2324 3.79281 10.7657 3.87597 9.27722C3.94798 7.83156 4.2706 6.5506 5.31885 5.49808C6.3671 4.44557 7.6336 4.11278 9.05862 4.04396C10.5328 3.95992 14.9524 3.95992 16.4265 4.04396C17.8571 4.11672 19.1242 4.44726 20.1662 5.50203C21.2084 6.5568 21.541 7.83833 21.6091 9.28399C21.6923 10.7686 21.6923 15.2313 21.6091 16.7227Z" fill="white"/>
</g>
<defs>
<clipPath id="clip0_44_19">
<rect width="26" height="26" fill="white"/>
</clipPath>
</defs>
</svg>
