<svg width="451" height="410" viewBox="0 0 451 410" fill="none" xmlns="http://www.w3.org/2000/svg">
<path d="M332.348 131.084L389.696 130.791L389.851 161.176L390.007 191.629L293.374 192.157C288.6 192.183 284.042 192.207 279.69 192.229C233.992 192.469 211.009 192.589 198.511 193.931C191.656 194.666 187.705 195.788 184.847 197.664C182.501 199.203 180.968 201.228 179.214 203.544C178.86 204.012 178.497 204.492 178.116 204.982C166.457 219.986 169.342 242.433 184.417 253.993L190.132 258.375L190.534 258.683L191.04 258.684L291.083 258.972L389.656 259.255L390.182 290.067L390.71 321.037C390.335 320.912 389.977 320.882 389.682 320.881C388.298 320.875 347.016 321.091 297.959 321.36C248.843 321.63 202.19 321.171 194.206 320.357C149.592 315.799 116.552 276.209 116.313 226.445C116.106 183.781 143.459 144.753 180.718 134.113C183.397 133.348 185.85 132.53 187.649 131.822C188.542 131.471 189.311 131.132 189.877 130.827C190.152 130.679 190.436 130.508 190.67 130.319C190.786 130.225 190.939 130.087 191.075 129.905C191.197 129.741 191.424 129.383 191.422 128.881C191.42 128.643 191.363 128.462 191.339 128.391C191.309 128.302 191.276 128.23 191.254 128.185C191.21 128.096 191.163 128.019 191.131 127.969C191.063 127.863 190.982 127.749 190.9 127.639C190.732 127.414 190.495 127.117 190.203 126.759C189.615 126.041 188.756 125.025 187.66 123.751C185.466 121.201 182.299 117.586 178.395 113.174C170.587 104.349 159.82 92.3218 147.978 79.2216C136.144 66.1288 125.386 53.9951 117.587 44.9944C113.687 40.4927 110.533 36.7819 108.356 34.1293C107.266 32.8008 106.432 31.7511 105.874 31.0057C105.711 30.7866 105.576 30.6011 105.469 30.4474C105.686 30.2031 106.028 29.8863 106.518 29.5002C107.594 28.6538 109.193 27.6217 111.211 26.4631C115.234 24.1535 120.747 21.4394 126.629 18.8256C132.507 16.2136 138.719 13.7167 144.132 11.8367C149.604 9.93621 154.089 8.72791 156.594 8.5838C157.286 8.54399 157.751 8.53042 158.223 8.60601C158.671 8.67767 159.191 8.84216 159.905 9.24764C161.399 10.0974 163.584 11.9083 167.453 15.7745C175.148 23.465 189.052 38.8136 216.67 69.3316L272.381 130.891L272.831 131.388L273.501 131.384L332.348 131.084ZM419.944 127.272L393.373 126.997L392.846 96.1411L392.296 63.8256L392.271 62.3436L390.788 62.3511L343.334 62.5933L296.558 62.8321L269.036 31.9598L243.265 3.05038L343.351 2.14252C382.607 1.78735 408.505 1.66683 424.688 1.81382C432.783 1.88737 438.424 2.02775 442.081 2.2372C443.916 2.34228 445.213 2.46274 446.057 2.59338C446.214 2.61754 446.347 2.641 446.461 2.66322C446.484 2.87041 446.507 3.12328 446.532 3.42333C446.609 4.37083 446.685 5.71124 446.761 7.39982C446.911 10.7727 447.053 15.4795 447.183 21.091C447.443 32.311 447.653 47.1153 447.784 62.0271C447.914 76.9387 447.965 91.9512 447.905 103.587C447.876 109.406 447.818 114.375 447.73 118.061C447.686 119.906 447.634 121.42 447.574 122.557C447.512 123.745 447.446 124.397 447.4 124.608L448.864 124.929L447.4 124.608L446.756 127.548L419.944 127.272ZM446.381 2.1071C446.377 2.09451 446.376 2.0872 446.376 2.08637C446.376 2.08552 446.378 2.09192 446.381 2.1071ZM393.333 255.493L393.177 225.065L393.022 194.57L420.406 194.839L447.835 195.109L447.986 224.752L448.137 254.395L420.713 254.945L393.333 255.493ZM56.1243 72.5836L74.7433 93.1482C80.1783 99.1518 85.117 104.711 88.6947 108.831C90.4847 110.892 91.9278 112.586 92.9204 113.792C93.3525 114.317 93.691 114.739 93.9329 115.055C93.8747 115.158 93.8079 115.274 93.7321 115.403C93.3515 116.05 92.7905 116.944 92.0858 118.026C90.6792 120.188 88.732 123.051 86.5852 126.092C76.5969 140.237 65.7931 163.927 60.8111 182.56C59.0432 189.175 58.0639 193.39 57.5446 199.306C57.0296 205.171 56.968 212.699 56.9871 225.944C57.0247 251.784 57.3828 256.223 60.6029 268.565C75.5399 325.828 114.429 368.361 166.515 384.187L166.951 382.752L166.515 384.187L178.667 387.879L178.881 387.944L179.104 387.944L285.803 387.894L392.501 387.842L394.008 387.842L394.001 386.335L393.837 354.359C393.763 339.7 393.672 331.631 393.306 327.235C393.19 325.843 393.042 324.718 392.819 323.831L421.095 324.108L448.502 324.379L449.136 384.351C449.314 401.243 449.404 416.823 449.406 428.315C449.407 434.061 449.386 438.781 449.343 442.131C449.322 443.807 449.295 445.131 449.263 446.067C449.255 446.282 449.248 446.473 449.24 446.642C448.795 446.711 448.188 446.782 447.411 446.854C445.488 447.033 442.669 447.204 439.061 447.367C431.854 447.693 421.579 447.981 409.205 448.227C384.459 448.719 351.355 449.042 317.681 449.168C284.007 449.294 249.77 449.223 222.759 448.924C209.253 448.775 197.559 448.569 188.648 448.304C179.684 448.036 173.655 447.71 171.384 447.339L171.143 448.819L171.384 447.339C116.833 438.431 66.4313 402.573 35.1939 350.311C19.5331 324.108 9.9092 297.803 4.31372 265.866C0.672309 245.08 0.782677 207.567 4.55632 185.683C11.7784 143.801 28.4004 106.052 52.2269 77.2876L56.1243 72.5836ZM449.916 446.507C449.922 446.505 449.923 446.504 449.918 446.506C449.917 446.507 449.917 446.507 449.916 446.507ZM449.183 447.458C449.183 447.458 449.184 447.454 449.185 447.447C449.184 447.455 449.183 447.458 449.183 447.458Z" stroke="white" stroke-opacity="0.6" stroke-width="3"/>
</svg>
