<svg width="70" height="70" viewBox="0 0 70 70" fill="none" xmlns="http://www.w3.org/2000/svg">
<path fill-rule="evenodd" clip-rule="evenodd" d="M0.0984087 0.345805C0.043121 0.516607 0.0211388 4.9572 0.0497818 10.2141L0.101961 19.772L4.59358 19.8393L9.08543 19.9063L9.14538 24.9286L9.20555 29.9506L24.7674 30.0747L40.3292 30.1988L41.2147 30.885C43.4481 32.6159 43.8609 35.9624 42.1152 38.1853C40.6285 40.0788 41.4636 39.9934 24.3597 39.9996L9.09453 40.005V35.0347V30.0645L4.59825 30.1316L0.101961 30.1988V35.0399V39.8809L4.59825 39.9482L9.09453 40.0152V44.9754V49.9354H18.2487H27.403L36.0201 59.5554C44.5581 69.0872 44.6449 69.1749 45.5029 69.1299C47.2084 69.0406 53.7265 66.1836 53.7221 65.5277C53.7208 65.3492 50.7232 61.854 47.0609 57.7602C43.3984 53.6667 40.402 50.2449 40.402 50.1566C40.402 50.0682 41.0763 49.8068 41.9008 49.5759C47.8183 47.9188 52.1612 41.7674 52.1629 35.0399C52.1652 27.1981 46.985 20.8966 39.9124 20.1377C38.6552 20.0029 31.3817 19.8949 23.7491 19.8979C16.1165 19.9008 9.69692 19.9016 9.4831 19.8996C9.12606 19.8964 9.09453 19.4925 9.09453 14.922V9.94793L25.6919 10.0246L42.2893 10.1016L44.1767 10.6855C52.1807 13.1621 58.1427 19.7407 60.4028 28.5899C60.8862 30.4821 60.9388 31.1479 60.9242 35.164C60.9091 39.2908 60.8613 39.8022 60.3031 41.8488C59.5198 44.72 57.8314 48.3706 56.2842 50.5381C55.609 51.4842 55.0566 52.3236 55.0566 52.4035C55.0566 52.4835 56.4334 54.0852 58.1162 55.9633L61.1759 59.3776L61.9589 58.4424C65.7175 53.9517 68.3482 48.0538 69.5111 41.51C70.1199 38.0838 70.1674 32.2216 69.6128 28.9576C68.7632 23.9589 67.2778 19.8321 64.8471 15.7177C59.9985 7.51078 52.1308 1.84677 43.5772 0.405138C40.6038 -0.0960947 0.259609 -0.150959 0.0984087 0.345805ZM0.11928 50.5669C-0.0785567 51.4482 -0.0130548 69.3871 0.189445 69.7533C0.312898 69.9767 4.223 70.0321 16.4358 69.9839L32.5196 69.9201L28.1934 65.017L23.8672 60.1139H16.4855H9.10364L9.04368 55.0867L8.98351 50.0595L4.62356 49.9922L0.263384 49.9249L0.11928 50.5669Z" fill="#FF1200"/>
</svg>
