<svg width="450" height="410" viewBox="0 0 450 410" fill="none" xmlns="http://www.w3.org/2000/svg">
<path d="M117.313 279.513H59.9648V249.128V218.675L156.599 218.64C161.373 218.638 165.932 218.638 170.284 218.637C215.982 218.631 238.965 218.628 251.47 217.35C258.328 216.65 262.285 215.549 265.153 213.687C267.506 212.16 269.05 210.142 270.815 207.835C271.172 207.369 271.537 206.891 271.921 206.403C283.656 191.459 280.887 168.998 265.87 157.361L260.178 152.95L259.777 152.639L259.271 152.635L159.231 151.837L60.6608 151.051L60.2916 120.237L59.9219 89.2646C60.2961 89.3918 60.6542 89.4233 60.9488 89.426C62.3331 89.4388 103.615 89.434 152.673 89.4149C201.791 89.3957 248.44 90.0924 256.42 90.948C301.01 95.7328 333.847 135.491 333.833 185.256C333.822 227.92 306.27 266.809 268.958 277.258C266.274 278.009 263.818 278.815 262.015 279.513C261.12 279.86 260.349 280.195 259.782 280.497C259.506 280.644 259.222 280.813 258.986 281.002C258.87 281.094 258.716 281.231 258.579 281.413C258.456 281.576 258.227 281.933 258.227 282.435C258.227 282.673 258.284 282.855 258.307 282.926C258.337 283.015 258.37 283.087 258.392 283.132C258.435 283.222 258.481 283.298 258.513 283.349C258.58 283.455 258.661 283.57 258.743 283.68C258.91 283.906 259.145 284.204 259.435 284.563C260.02 285.285 260.874 286.305 261.963 287.584C264.143 290.145 267.292 293.777 271.173 298.208C278.936 307.073 289.642 319.155 301.417 332.316C313.183 345.469 323.88 357.657 331.632 366.698C335.51 371.219 338.645 374.946 340.808 377.61C341.892 378.944 342.72 379.998 343.274 380.746C343.436 380.966 343.57 381.152 343.676 381.306C343.458 381.549 343.115 381.865 342.622 382.248C341.542 383.089 339.938 384.113 337.914 385.261C333.88 387.55 328.353 390.236 322.457 392.82C316.566 395.402 310.341 397.867 304.919 399.719C299.438 401.592 294.946 402.777 292.44 402.909C291.748 402.945 291.284 402.956 290.811 402.878C290.364 402.804 289.844 402.637 289.133 402.228C287.643 401.371 285.467 399.549 281.618 395.663C273.963 387.933 260.137 372.514 232.675 341.855L177.279 280.012L176.832 279.513H176.162H117.313ZM29.6997 282.878L56.2687 283.288L56.6381 314.147L57.0235 346.465L57.0412 347.947H58.5234H105.978H152.755L180.119 378.959L205.742 408L105.653 408.397C66.3961 408.552 40.4972 408.54 24.3156 408.31C16.2206 408.195 10.581 408.026 6.92437 407.798C5.0899 407.684 3.79392 407.557 2.95011 407.422C2.79396 407.397 2.66041 407.373 2.54719 407.35C2.52535 407.142 2.50282 406.889 2.47996 406.589C2.40777 405.641 2.33797 404.301 2.27139 402.612C2.13841 399.238 2.02037 394.531 1.9191 388.919C1.71661 377.697 1.58172 362.892 1.52722 347.98C1.47273 333.068 1.49866 318.055 1.61759 306.42C1.67707 300.601 1.75975 295.633 1.86701 291.947C1.92066 290.102 1.98022 288.588 2.0455 287.452C2.1138 286.264 2.18304 285.612 2.23038 285.402L0.768036 285.073L2.23038 285.402L2.88963 282.465L29.6997 282.878ZM2.62395 407.906C2.62763 407.919 2.6293 407.926 2.62928 407.927C2.62926 407.928 2.62736 407.921 2.62395 407.906ZM56.9648 154.794V185.223V215.718L29.5826 215.31L2.15546 214.9V185.256V155.613L29.5825 155.203L56.9648 154.794ZM393.235 339.422L374.722 318.763C369.317 312.732 364.407 307.147 360.85 303.009C359.071 300.939 357.636 299.238 356.65 298.027C356.221 297.5 355.884 297.076 355.644 296.759C355.703 296.656 355.77 296.54 355.847 296.412C356.231 295.767 356.796 294.876 357.506 293.797C358.924 291.643 360.886 288.789 363.048 285.759C373.108 271.665 384.033 248.031 389.11 229.423C390.912 222.817 391.912 218.607 392.462 212.695C393.007 206.832 393.107 199.305 393.155 186.06C393.25 160.219 392.914 155.779 389.757 143.421C375.113 86.0827 336.441 43.3509 284.436 27.2596L283.993 28.6925L284.436 27.2596L272.303 23.5059L272.09 23.4399L271.867 23.4389L165.169 22.9441L58.4718 22.451L56.9648 22.444V23.951V55.9273C56.9648 70.5862 57.0143 78.6556 57.3576 83.0536C57.4664 84.4464 57.6092 85.5714 57.8271 86.4603L29.5526 86.0384L2.14742 85.6279L1.82 25.6537C1.72796 8.7603 1.71727 -6.81952 1.77398 -18.3112C1.80233 -24.0579 1.84752 -28.7777 1.9077 -32.1268C1.93782 -33.8026 1.97155 -35.1272 2.00843 -36.0628C2.01689 -36.2773 2.02542 -36.4688 2.03396 -36.6377C2.47886 -36.7038 3.08666 -36.7719 3.86348 -36.8401C5.78826 -37.009 8.60815 -37.1662 12.2163 -37.3108C19.4253 -37.5997 29.7009 -37.8351 42.0769 -38.0179C66.8248 -38.3834 99.93 -38.538 133.604 -38.4921C167.279 -38.4463 201.515 -38.1999 228.524 -37.7638C242.029 -37.5457 253.722 -37.2803 262.631 -36.969C271.594 -36.6558 277.621 -36.2989 279.889 -35.9164L280.139 -37.3953L279.89 -35.9164C334.395 -26.7301 384.613 9.38467 415.583 61.8053C431.11 88.0878 440.599 114.442 446.032 146.407C449.567 167.212 449.265 204.723 445.38 226.587C437.944 268.432 421.13 306.096 397.157 334.738L393.235 339.422ZM1.3571 -36.5059C1.35074 -36.5035 1.34975 -36.5034 1.35521 -36.5052C1.35581 -36.5054 1.35644 -36.5056 1.3571 -36.5059ZM2.09465 -37.4532C2.09469 -37.453 2.09412 -37.449 2.09279 -37.4419C2.09395 -37.4498 2.09461 -37.4534 2.09465 -37.4532Z" stroke="white" stroke-opacity="0.6" stroke-width="3"/>
</svg>
